<svg xmlns="http://www.w3.org/2000/svg" width="256" height="256" viewBox="0 0 128 128">
      <defs>
        <linearGradient id="bg" x1="0" y1="0" x2="1" y2="1">
          <stop offset="0" stop-color="#334057"/>
          <stop offset="1" stop-color="#101a23"/>
        </linearGradient>
        <filter id="shadow"><feDropShadow dx="0" dy="3" stdDeviation="3" flood-color="#000" flood-opacity=".24"/></filter>
      </defs>
      <rect width="128" height="128" rx="24" fill="url(#bg)"/>
      <circle cx="103" cy="25" r="20" fill="#bac4e1" opacity=".08"/>
      <circle cx="22" cy="105" r="26" fill="#bac4e1" opacity=".06"/>
      <path d="M23 128c4-28 18-40 41-40s38 12 42 40Z" fill="#6f7897" filter="url(#shadow)"/>
      
        <path d="M31 56c0-25 11-39 33-39s34 15 34 40v28c-8 9-15 13-20 14V57H45v42c-7-2-11-6-14-10Z" fill="#70452f"/>
        <ellipse cx="64" cy="56" rx="30" ry="35" fill="#70452f"/>
        
      <ellipse cx="64" cy="58" rx="25" ry="31" fill="#e1ad87"/>
      <path d="M41 51c7-12 17-18 30-18 10 0 18 3 25 9-5-17-16-25-32-25-17 0-28 10-30 31Z" fill="#70452f" opacity=".95"/>
      <ellipse cx="54" cy="54" rx="2.3" ry="2.6" fill="#20262b"/>
      <ellipse cx="75" cy="54" rx="2.3" ry="2.6" fill="#20262b"/>
      <path d="M60 64c1.5 2 3 3 5 3" stroke="#b5785f" stroke-width="1.4" stroke-linecap="round" fill="none"/>
      <path d="M55 74c6 4 12 4 18 0" stroke="#8c5c52" stroke-width="1.7" stroke-linecap="round" fill="none"/>
      <path d="M46 46c4-2 8-2 12 0M70 46c4-2 8-2 12 0" stroke="#70452f" stroke-width="1.8" stroke-linecap="round" opacity=".7"/>
      <circle cx="64" cy="64" r="48" fill="none" stroke="rgba(255,255,255,.06)" stroke-width="1"/>
      <text x="108" y="115" text-anchor="middle" fill="#fff" opacity=".16" font-family="Arial, sans-serif" font-size="12" font-weight="700">L</text>
    </svg>